<?xml version="1.0" standalone="no"?>
<!DOCTYPE svg PUBLIC "-//W3C//DTD SVG 20010904//EN"
 "http://www.w3.org/TR/2001/REC-SVG-20010904/DTD/svg10.dtd">
<svg version="1.0" xmlns="http://www.w3.org/2000/svg"
 width="700.000000pt" height="700.000000pt" viewBox="0 0 700.000000 700.000000"
 preserveAspectRatio="xMidYMid meet">
<metadata>
Created by potrace 1.11, written by Peter Selinger 2001-2013
</metadata>
<g transform="translate(0.000000,700.000000) scale(0.100000,-0.100000)"
fill="#000000" stroke="none">
<path d="M3040 5722 c-77 -26 -97 -38 -158 -96 -95 -90 -132 -193 -132 -372
l0 -92 -79 47 c-44 27 -128 64 -188 84 -380 126 -786 27 -1005 -245 -63 -78
-131 -216 -159 -323 -30 -115 -30 -292 -1 -398 81 -288 325 -525 624 -607 120
-32 247 -43 346 -30 108 14 268 66 378 124 l84 43 0 -708 c0 -600 -2 -709 -14
-709 -8 0 -133 25 -277 55 -657 138 -650 137 -725 133 -86 -6 -141 -34 -202
-103 -73 -83 -92 -200 -51 -312 20 -55 53 -90 613 -649 564 -565 594 -593 666
-628 141 -68 120 -67 1113 -64 l892 3 64 23 c71 26 159 78 210 126 46 42 106
136 132 205 26 70 199 1286 199 1401 0 147 -52 271 -158 377 -62 62 -80 72
-653 358 -324 162 -622 306 -663 320 -64 21 -93 25 -200 25 l-126 0 0 130 c0
72 2 130 5 130 3 0 33 -20 67 -45 80 -60 246 -141 328 -161 88 -22 258 -14
355 16 126 39 222 97 311 185 95 94 151 184 193 311 90 267 50 518 -114 726
-90 114 -243 218 -395 266 -224 72 -488 53 -692 -50 l-58 -28 0 62 c-1 105
-18 199 -50 265 -39 80 -128 163 -207 194 -80 30 -200 35 -273 11z m-645 -746
c100 -21 196 -52 281 -91 l74 -34 0 -198 -1 -198 -120 -105 c-212 -185 -319
-257 -451 -305 -141 -52 -316 -43 -426 22 -209 122 -306 407 -208 607 47 96
188 214 316 264 51 20 144 44 215 56 53 8 248 -3 320 -18z m1960 -28 c33 -11
81 -33 107 -50 60 -38 140 -124 167 -182 96 -197 3 -476 -191 -570 -117 -57
-225 -68 -398 -41 -152 23 -230 52 -388 147 l-82 50 2 176 3 176 103 87 c252
211 465 276 677 207z"/>
</g>
</svg>
